<?xml version="1.0" encoding="UTF-8" standalone="no"?>
<svg
   xmlns:dc="http://purl.org/dc/elements/1.1/"
   xmlns:cc="http://creativecommons.org/ns#"
   xmlns:rdf="http://www.w3.org/1999/02/22-rdf-syntax-ns#"
   xmlns:svg="http://www.w3.org/2000/svg"
   xmlns="http://www.w3.org/2000/svg"
   xmlns:sodipodi="http://sodipodi.sourceforge.net/DTD/sodipodi-0.dtd"
   xmlns:inkscape="http://www.inkscape.org/namespaces/inkscape"
   width="200mm"
   height="200mm"
   viewBox="0 0 200 200"
   version="1.1"
   id="svg8"
   inkscape:version="1.0.2-2 (e86c870879, 2021-01-15)"
   sodipodi:docname="inverted-myicon-v1.svg"
   inkscape:export-filename="C:\Users\mksit\Pictures\myicon-v1.png"
   inkscape:export-xdpi="52.551723"
   inkscape:export-ydpi="52.551723">
  <defs
     id="defs2">
    <rect
       x="33.892437"
       y="155.04584"
       width="39.546551"
       height="23.195284"
       id="rect134" />
    <rect
       x="8.0036459"
       y="79.176559"
       width="33.403645"
       height="20.571354"
       id="rect114" />
    <rect
       x="61.538811"
       y="109.91459"
       width="13.430294"
       height="17.138659"
       id="rect26" />
    <rect
       x="48.375786"
       y="105.30419"
       width="84.724442"
       height="45.703091"
       id="rect12" />
  </defs>
  <sodipodi:namedview
     id="base"
     pagecolor="#ffffff"
     bordercolor="#666666"
     borderopacity="1.0"
     inkscape:pageopacity="0.0"
     inkscape:pageshadow="2"
     inkscape:zoom="1"
     inkscape:cx="230.4376"
     inkscape:cy="364.44441"
     inkscape:document-units="mm"
     inkscape:current-layer="g37"
     inkscape:document-rotation="0"
     showgrid="false"
     inkscape:snap-text-baseline="false"
     inkscape:window-width="2400"
     inkscape:window-height="1271"
     inkscape:window-x="2391"
     inkscape:window-y="-9"
     inkscape:window-maximized="1"
     inkscape:pagecheckerboard="true" />
  <metadata
     id="metadata5">
    <rdf:RDF>
      <cc:Work
         rdf:about="">
        <dc:format>image/svg+xml</dc:format>
        <dc:type
           rdf:resource="http://purl.org/dc/dcmitype/StillImage" />
        <dc:title />
      </cc:Work>
    </rdf:RDF>
  </metadata>
  <g
     inkscape:label="Layer 1"
     inkscape:groupmode="layer"
     id="layer1">
    <g
       inkscape:groupmode="layer"
       id="layer2"
       inkscape:label="Layer 2">
      <text
         xml:space="preserve"
         id="text112"
         style="font-style:normal;font-weight:normal;font-size:10.5833px;line-height:1.25;font-family:sans-serif;white-space:pre;shape-inside:url(#rect114);fill:#000000;fill-opacity:1;stroke:none;" />
      <g
         id="g37"
         transform="matrix(1.4202476,0,0,1.4998351,-32.157109,-35.531485)">
        <rect
           style="fill:#000000;stroke-width:0.464654"
           id="rect102"
           width="80.26104"
           height="70.532425"
           x="55.595158"
           y="55.567608" />
        <g
           id="g93"
           transform="matrix(1.4537891,0,0,1.4086055,-81.603424,-40.62327)"
           style="fill:#ffffff">
          <g
             id="g84"
             transform="matrix(0.16268234,0,0,0.15899116,79.770925,52.481478)"
             style="fill:#ffffff">
            <path
               d="M 150,150 H 362 V 362 H 150 Z m 0,0"
               id="path70"
               style="fill:#ffffff" />
            <path
               d="m 497,211 c 8.28516,0 15,-6.71484 15,-15 0,-8.28516 -6.71484,-15 -15,-15 h -45 v -30 h 45 c 8.28516,0 15,-6.71484 15,-15 0,-8.28516 -6.71484,-15 -15,-15 H 452 V 95 C 452,75.699219 436.30078,60 417,60 H 391 V 15 C 391,6.714844 384.28516,0 376,0 367.71484,0 361,6.714844 361,15 V 60 H 331 V 15 C 331,6.714844 324.28516,0 316,0 307.71484,0 301,6.714844 301,15 V 60 H 271 V 15 C 271,6.714844 264.28516,0 256,0 247.71484,0 241,6.714844 241,15 V 60 H 211 V 15 C 211,6.714844 204.28516,0 196,0 187.71484,0 181,6.714844 181,15 V 60 H 151 V 15 C 151,6.714844 144.28516,0 136,0 127.71484,0 121,6.714844 121,15 V 60 H 95 C 75.699219,60 60,75.699219 60,95 v 26 H 15 c -8.285156,0 -15,6.71484 -15,15 0,8.28516 6.714844,15 15,15 h 45 v 30 H 15 c -8.285156,0 -15,6.71484 -15,15 0,8.28516 6.714844,15 15,15 h 45 v 30 H 15 c -8.285156,0 -15,6.71484 -15,15 0,8.28516 6.714844,15 15,15 h 45 v 30 H 15 c -8.285156,0 -15,6.71484 -15,15 0,8.28516 6.714844,15 15,15 h 45 v 30 H 15 c -8.285156,0 -15,6.71484 -15,15 0,8.28516 6.714844,15 15,15 h 45 v 26 c 0,19.30078 15.699219,35 35,35 h 26 v 45 c 0,8.28516 6.71484,15 15,15 8.28516,0 15,-6.71484 15,-15 v -45 h 30 v 45 c 0,8.28516 6.71484,15 15,15 8.28516,0 15,-6.71484 15,-15 v -45 h 30 v 45 c 0,8.28516 6.71484,15 15,15 8.28516,0 15,-6.71484 15,-15 v -45 h 30 v 45 c 0,8.28516 6.71484,15 15,15 8.28516,0 15,-6.71484 15,-15 v -45 h 30 v 45 c 0,8.28516 6.71484,15 15,15 8.28516,0 15,-6.71484 15,-15 v -45 h 26 c 19.30078,0 35,-15.69922 35,-35 v -26 h 45 c 8.28516,0 15,-6.71484 15,-15 0,-8.28516 -6.71484,-15 -15,-15 h -45 v -30 h 45 c 8.28516,0 15,-6.71484 15,-15 0,-8.28516 -6.71484,-15 -15,-15 h -45 v -30 h 45 c 8.28516,0 15,-6.71484 15,-15 0,-8.28516 -6.71484,-15 -15,-15 H 452 V 211 Z M 392,377 c 0,8.28516 -6.71484,15 -15,15 H 135 c -8.28516,0 -15,-6.71484 -15,-15 V 135 c 0,-8.28516 6.71484,-15 15,-15 h 242 c 8.28516,0 15,6.71484 15,15 z m 0,0"
               id="path72"
               style="fill:#ffffff" />
          </g>
        </g>
        <g
           aria-label="MK"
           id="text121"
           style="font-style:normal;font-variant:normal;font-weight:bold;font-stretch:normal;font-size:10.5833px;line-height:1.25;font-family:sans-serif;-inkscape-font-specification:'sans-serif, Bold';font-variant-ligatures:normal;font-variant-caps:normal;font-variant-numeric:normal;font-variant-east-asian:normal;fill:#000000;fill-opacity:1;stroke:none;stroke-width:0.264583"
           transform="matrix(0.9396626,0,0,1,-6.0239885,-43.710656)">
          <path
             d="m 115.0288,146.57918 h -7.58316 v -16.75604 l -5.47893,10.87377 h -5.260563 l -5.478928,-10.87377 v 16.75604 h -7.186132 v -25.02481 h 8.853632 l 6.65015,12.55441 6.630301,-12.55441 h 8.85363 z"
             style="font-style:normal;font-variant:normal;font-weight:bold;font-stretch:normal;font-size:42.1139px;line-height:1.25;font-family:sans-serif;-inkscape-font-specification:'sans-serif, Bold';font-variant-ligatures:normal;font-variant-caps:normal;font-variant-numeric:normal;font-variant-east-asian:normal;fill:#000000;fill-opacity:1;stroke:none;stroke-width:0.247437"
             id="path138" />
          <path
             d="m 132.03725,146.57918 h -8.3463 l -7.88556,-10.01666 -1.59483,1.83191 v 8.18475 h -6.80462 v -25.02481 h 6.80462 v 11.32754 l 9.42724,-11.32754 h 7.88556 l -10.31325,11.57964 z"
             style="font-style:normal;font-variant:normal;font-weight:bold;font-stretch:normal;font-size:42.1139px;line-height:1.25;font-family:sans-serif;-inkscape-font-specification:'sans-serif, Bold';font-variant-ligatures:normal;font-variant-caps:normal;font-variant-numeric:normal;font-variant-east-asian:normal;opacity:1;fill:#000000;fill-opacity:1;stroke:none;stroke-width:0.233753;stroke-miterlimit:4;stroke-dasharray:none"
             id="path140" />
          <text
             xml:space="preserve"
             id="text132"
             style="font-style:normal;font-weight:normal;font-size:10.9178px;line-height:1.25;font-family:sans-serif;white-space:pre;shape-inside:url(#rect134);fill:#000000;fill-opacity:1;stroke:none;" />
        </g>
      </g>
    </g>
    <text
       xml:space="preserve"
       id="text24"
       style="font-style:normal;font-weight:normal;font-size:10.5833px;line-height:1.25;font-family:sans-serif;white-space:pre;shape-inside:url(#rect26);fill:#000000;fill-opacity:1;stroke:none;" />
  </g>
</svg>
